<svg width="551" height="560" xmlns="http://www.w3.org/2000/svg" version="1.1">

 <g>
  <title>Layer 1</title>
  <g id="svg_21">
   <path id="svg_22" fill-rule="evenodd" d="m314.6428,352.0036c-5.7422,10.832 -7.75,23.059 -8.3477,35.176c-0.16016,3.1875 -1.5156,4.7383 -2.9414,7.3984c-0.61719,1.1445 -1.2344,2.3438 -1.8477,3.4883c-0.95312,1.7422 -1.9375,2.5547 -2.4844,4.668c-0.38672,1.4961 -0.77344,2.5703 -0.98828,4.1211c-0.125,1.0039 -0.33594,1.9023 -0.42188,2.9414c-0.125,1.3555 -0.10547,2.6602 -0.26562,4.0156c-0.10547,1.0039 -0.14062,1.9219 -0.21094,2.9258c-0.07031,0.84375 -0.30078,1.8125 -0.44141,2.6758c-0.23047,1.4805 -0.65234,3.0664 -0.96875,4.543c-0.19531,0.87891 -0.44141,1.6562 -0.61719,2.5703c-0.24609,1.1797 -0.44141,2.2188 -0.75781,3.3984c-0.65234,2.3789 -0.61719,5.832 -0.6875,8.3477c0,0.28125 -0.05469,0.54688 0.07031,0.79297c0.33594,-0.03516 0.30078,-0.61719 0.31641,-0.86328c0.24609,-3.1523 -0.01953,-5.4766 0.91406,-8.6484c0.42187,-1.4609 0.61719,-3.0117 1.0586,-4.4922c0.26562,-0.89844 0.47656,-1.9023 0.72266,-2.8359c0.38672,-1.5156 0.66797,-3.0469 0.98828,-4.5625c0.19531,-0.95312 0.23047,-2.2891 0.35156,-3.293c0.10547,-0.87891 0.19531,-1.5312 0.26562,-2.4141c0.125,-1.6562 0.26562,-2.7109 0.63281,-4.332c0.21094,-0.95312 0.31641,-1.6562 0.65234,-2.625c0.96875,-2.7109 0.91406,-2.8906 2.8359,-5.0898c0.63281,-0.72266 2.2539,-2.7656 3.1523,-2.9062c0.72266,-0.125 0.59766,1.1094 0.61719,1.6016c0.26562,8.3125 1.1445,16.629 2.4141,24.855c2.8008,12.172 4.6328,16.961 5.3008,20.098l4.2461,5.0195c4.8281,5.7969 1.1797,7.6641 7.4492,10.27c2.1328,0.87891 4.2812,1.6914 6.4102,2.5195c3.2227,1.2344 4.4219,1.2148 5.832,3.3984c4.7578,-0.54688 11.379,-1.6016 15.535,-3.4883c7.0977,-3.207 14.953,-4.8438 23.516,-0.03516c8.5781,4.8086 10.676,13.371 19.008,13.371c3.875,-0.03515 8.0859,3.1719 11.977,2.2891c5.1797,-1.1445 10.391,-2.2734 15.605,-2.5703c1.7266,-0.08984 3.4688,-0.07031 5.2148,0.07032c17.176,7.5039 35.477,3.9805 53.074,1.8672c-13.371,2.1133 -29.559,6.8516 -42.926,4.7578c2.1133,2.8164 3.5234,7.9258 7.0469,10.023c-6.3242,0.70312 -7.7344,-6.3242 -10.551,-9.8477c-1.4102,-1.4102 -2.8164,-2.1133 -4.0703,-2.1484c-1.8477,-0.21094 -3.8945,-0.10547 -5.5117,-0.24609c-1.9375,0 -3.8594,0.125 -4.5273,0.58203s0.16016,2.0625 1.3398,3.8242c1.1797,1.7773 2.6758,3.7148 3.3125,4.8789c0.30078,2.9766 2.0977,7.1172 2.5898,10.18c0.33594,3.5938 -0.61719,5.3203 -0.75781,4.332c-0.125,-1.0039 -0.65234,-3.6445 -1.2148,-6.1992c-0.5625,-2.5352 -1.1797,-4.9688 -1.4805,-5.5117c-0.61719,-1.0938 -1.4609,-2.6953 -2.7461,-3.8047c-1.2852,-1.1094 -4.2812,-4.2969 -5.0195,-4.8984c-0.73828,-0.59766 -2.6953,-1.6016 -2.6953,-1.6016c-1.375,0.33594 -11.82,2.8555 -12.418,3.2227c-0.77344,0.45703 0.26562,1.5156 0.63281,1.957c0.86328,1.0039 1.9922,2.0977 2.9414,3.0469c0.80859,0.82813 1.6914,1.6016 2.5195,2.4492c1.2852,1.2852 2.6055,2.5 3.875,3.8242c1.0039,1.0742 2.1836,2.2188 3.293,3.1875c1.1641,1.0391 2.3789,1.4805 3.5586,2.3594c0.79297,0.58203 0.6875,1.0938 -0.16016,0.63281c-0.91406,-0.49219 -2.0273,-1.0938 -2.9062,-1.6367c-1.0391,-0.65234 -2.6055,-2.1484 -3.5742,-3.0312c-1.3398,-1.2148 -2.5703,-2.3438 -3.9648,-3.5039c-1.0391,-0.86328 -1.8828,-1.6211 -2.9766,-2.4297c-2.3242,-1.7266 -3.2578,-2.7812 -6.1992,-3.6094c-1.2148,-0.33594 -2.0781,-0.58203 -3.3281,-0.82812c-0.52734,-0.10547 -1.0938,-0.23047 -1.6016,-0.42188c-0.35156,-0.125 -0.49219,-0.07032 -0.54688,0.37109c-0.10547,0.93359 0.42188,1.9023 1.0742,2.5195c1.4805,1.3906 3.6445,1.8477 4.668,3.7695c-5.6367,0.70312 -7.75,-4.9336 -11.324,-7.6641c-1.0391,-1.0039 -3.2773,-3.1719 -5.582,-5.3203c-2.2891,-2.1484 -4.6484,-4.2969 -5.9375,-5.3008c-2.5703,-2.0078 -6.1289,-4.4023 -9.793,-4.4023c-3.6797,0 -10.656,2.9961 -10.656,2.9961l-3.1523,1.1445c3.0664,0.79297 3.5586,1.9219 6.3398,4.9336c4.2812,4.6484 7.3789,0.63281 12.312,2.1133c1.4961,0.49219 3.8242,2.8008 5.2852,3.5234c1.4609,0.72266 3.875,4.332 5.2852,5.2852c7.6992,8.1914 10.902,13.984 22.16,15.395c2.1133,0.35156 4.0508,1.0938 5.8672,2.1133c5.4414,3.0664 9.793,8.6133 14.551,13.371c-3.6992,-0.70312 -4.668,-2.0625 -8.0859,-4.4023c-1.707,-1.1641 -4.9141,-5.5117 -6.7461,-6.1133c-2.6758,-1.0938 -4.5273,-1.0742 -7.3086,-0.77344c-1.4609,0.16016 -3.1172,-0.61719 -4.3867,-1.2852c-1.1992,-0.63281 -1.7617,-1.2344 -2.8008,-1.9922c-0.38672,-0.26562 -1.3906,-0.93359 -1.7266,-0.26562c-0.35156,0.6875 1.1992,2.3242 1.6367,2.8555c0.72266,0.87891 1.7617,1.832 2.5703,2.6758c0.93359,0.98828 1.5664,1.6367 2.6406,2.5c0.75781,0.59766 1.4961,1.3906 2.2539,2.0625c1.0742,0.95312 2.0977,1.832 3.1016,2.8555c0.66797,0.66797 1.1992,1.1641 1.832,1.9023c2.043,2.3594 3.5586,3.5234 4.6328,6.6602c0.37109,1.0742 0.47656,2.2188 0.82812,3.3281c0.40625,1.3203 0.84375,2.6406 1.5312,3.8594c0.59766,1.0586 -0.37109,-2.0625 0.17578,-0.54688c0.10547,0.31641 0.42188,1.3398 -0.16016,1.375c-0.52734,0.03515 -1.2344,-1.707 -1.4258,-2.1133c-0.52734,-1.1797 -1.0391,-2.8008 -1.3398,-4.0703c-0.75781,-3.1719 -2.2891,-4.5977 -4.5977,-6.6953c-0.79297,-0.72266 -1.4102,-1.3047 -2.2734,-1.9727c-2.043,-1.5664 -4.1914,-2.9414 -6.2344,-4.543c-7.3633,-5.7617 -13.617,-12.684 -20.625,-18.793c-1.3203,-1.1641 -2.6758,-2.2891 -4.1055,-3.3281c-1.8828,-1.3906 -0.14062,-0.89844 -2.3242,-1.8477c-2.168,-1.8672 -6.375,-3.1016 -8.4531,-3.1719c-2.0625,-0.07032 -5.7617,-0.72266 -7.6641,-1.9727c-1.4805,-0.98828 -6.0586,-3.418 -7.1172,-4c-0.82813,-0.45703 -6.9922,-1.7617 -9.1953,-2.8711c-0.33594,0.95313 5.7617,4.0703 6.2695,4.6133c1.1445,1.2148 2.5703,2.3438 3.8047,3.3633c1.8828,1.5312 3.7695,3.0312 5.6914,4.5273c1.6367,1.3047 3.2578,2.6055 4.8789,3.9805c1.375,1.6914 3.4883,3.1016 4.8984,4.5078c5.1602,7.0469 8.1211,15.324 12.664,22.562c0.87891,1.3203 7.875,5.6172 9.8477,6.8867c1.0586,0.66797 2.0977,1.1289 3.1523,1.8828c0.91406,0.65234 1.7773,1.1641 2.6758,1.8477c1.0039,0.77344 2.0625,1.3398 3.1367,1.9727c0.87891,0.52734 1.7617,1.2852 2.5352,1.957c1.3047,1.0742 2.4141,2.1328 3.5234,3.3984c0.95312,1.0742 1.9727,2.0977 2.9766,3.1367c0.33594,0.35156 1.7617,2.0625 1.707,2.4492c-0.05469,0.58203 -0.80859,-0.07032 -0.98828,-0.23047c-0.52734,-0.52734 -0.93359,-1.1094 -1.4961,-1.6367c-1.1797,-1.1289 -2.2891,-2.2383 -3.4531,-3.3984c-1.1445,-1.1641 -4.0352,-3.4336 -5.4609,-4.1211c-1.2695,-0.59766 -2.4141,-1.0742 -3.6289,-1.7969c-0.79297,-0.47656 -1.7773,-0.93359 -2.625,-1.3398c-0.95312,-0.45703 -2.4141,-0.84375 -3.4688,-1.2148c-4.2109,-2.8164 -9.8477,-4.2266 -13.371,-8.4375c-1.0586,-1.3047 -1.9727,-2.6406 -2.8008,-4.0156c-4.1758,-6.9219 -6.2539,-14.672 -12.805,-20.117c-1.5312,-1.3047 -3.1016,-2.5547 -4.6484,-3.8047c-3.1172,-2.4844 -6.2891,-4.8633 -9.4961,-7.1172c-1.6562,-1.1445 -3.3281,-2.2734 -5.0547,-3.293c-1.0039,-0.52734 -2.0625,-0.96875 -3.0312,-1.6016c-3.3477,-2.1836 -4.8086,-3.8398 -8.6133,-5.0547l-0.28125,-0.08985c-3.5039,-1.1797 -4.4219,-4.543 -7.1875,-6.3242c-0.26563,-0.17578 -0.19531,0.07031 -0.125,0.28125c0.19531,0.63281 0.47656,1.1445 0.66797,1.8477c0.10547,0.38672 0.79297,2.6758 0.63281,2.9062c-0.37109,-0.07031 -1.7422,-2.1328 -2.2031,-2.6055c-0.6875,-0.72266 -1.6367,-1.3906 -2.3945,-2.0977c-1.3398,-1.2344 -2.6602,-2.7461 -3.7148,-4.2461c-0.89844,-1.2852 -1.9375,-2.9766 -2.6758,-4.3672c-0.80859,-1.4961 -1.5664,-4.0156 -1.7773,-5.707c-0.125,-1.0586 -0.33594,-2.0625 -0.45703,-3.1367c-0.08984,-0.84375 -0.40625,-1.9219 -0.61719,-2.7461c0.21094,1.0586 0.49219,1.832 0.58203,2.9609c0.08985,0.98828 0.28125,1.9023 0.37109,2.8711c0.21094,2.2539 1.0391,4.9141 2.1133,6.9062c0.77344,1.4258 1.4258,2.8008 2.2891,4.1914c1.2148,1.9727 2.3789,3.8945 4.1914,5.4062c1.4453,1.2148 2.3242,2.7656 3.2422,4.4023c0.33594,0.5625 0.63281,1.1289 0.96875,1.6914c1.25,2.1328 2.625,4.0508 4.8789,4.793c2.9258,1.0742 4.3672,2.6758 5.6719,4.457c1.3047,1.7617 2.4844,3.6641 4.8633,5.3555c4.332,3.6289 9.2656,7.1523 13.441,11.008c1.6562,1.6914 3.0312,3.5586 4.2266,5.4766c1.0039,1.6211 1.8672,3.293 2.6758,5.0039c0.80859,1.707 1.5508,3.4336 2.3086,5.1602c1.8828,3.8945 4.2461,8.4727 6.8867,11.871c0.45703,0.58203 1.5859,1.4258 2.1836,2.0078c0.72266,0.6875 1.3906,1.4609 2.0977,2.1836c0.75781,0.77344 1.3203,1.4961 2.1836,2.1836c1.2148,0.95312 2.3945,1.9922 3.6094,2.9766c0.77344,0.65234 1.4609,1.3203 2.2188,1.9922c0.98828,0.87891 1.9219,1.6211 2.8359,2.5898c0.33594,0.35156 0.84375,0.87891 1.1797,1.1641c-0.17578,-0.24609 -0.96875,-1.0039 -1.2344,-1.3047c0,0 -1.5508,-1.6211 -1.1289,-1.2148c1.0586,1.0039 2.0273,2.0977 3.082,3.1367c0.21094,0.21094 1.5859,1.4805 0.89844,1.707c-0.51172,0.17578 -2.2383,-1.4609 -2.6602,-1.8477c-0.79297,-0.72266 -1.4609,-1.375 -2.3242,-2.0625c-0.28125,-0.23047 -2.4648,-1.8672 -2.4492,-1.9922c0.01953,-0.14062 -3.3281,-2.5898 -3.6797,-2.8164c-0.61719,-0.42188 -1.375,-0.93359 -1.957,-1.375c-0.77344,-0.58203 -1.6719,-1.4961 -2.4492,-2.1836c-1.3047,-1.1641 -1.6562,-1.6367 -3.2773,-2.4648c-1.1641,-0.58203 -1.5312,-0.87891 -2.5195,-1.7422c-4.2266,-3.6641 -7.6797,-8.1914 -11.098,-12.594c-0.98828,-1.6562 -1.9375,-3.3633 -2.9062,-5.0195c-3.9297,-6.6406 -8.2969,-12.578 -14.867,-12.578c-6.0938,-0.45703 -5.0039,7.2031 -2.9766,14.867c0.51172,1.9219 1.0742,3.8242 1.6367,5.6172c0.58203,1.7773 1.2695,3.3984 1.8828,4.7383c-1.7969,-2.0273 -4.0703,-4.1055 -4.793,-6.1992c-0.58203,-1.6367 -1.0586,-3.3125 -1.4609,-4.9688c-2.0273,-8.3477 -2.4141,-16.855 -7.6445,-23.938c-1.5664,-2.3242 -3.3984,-4.4727 -5.6172,-6.3594c-0.77344,-0.6875 -1.0039,-1.0039 -1.1289,-2.0273c-0.125,-1.1797 -0.82812,-0.79297 -1.0586,0.24609c-0.08984,0.42188 -0.14063,0.98828 -0.14063,1.4258c0,0 -0.14062,-2.8164 -0.30078,-1.8125c-0.17578,1.0391 0.05469,2.9258 0.30078,3.9648c0.33594,1.3555 0.73828,2.7656 1.1094,4.1211c0.35156,1.3555 0.84375,2.9258 1.375,4.2109c0.35156,0.87891 0.65234,1.7617 0.98828,2.625c0.24609,0.61719 0.52734,1.2148 0.75781,1.8672c0.26562,0.6875 0.45703,1.1797 0.6875,1.9023c0.35156,1.2344 0.66797,1.8125 1.1797,2.9609c0.07031,0.17578 0.77344,1.6016 0.21094,1.5156c-0.28125,-0.03515 -0.95312,-1.5312 -1.1094,-1.832c-0.47656,-0.93359 -0.73828,-1.6016 -1.0586,-2.625c-0.42188,-1.3398 -1.1797,-2.8008 -1.7266,-4.1211s-1.1445,-2.4844 -1.6211,-3.8242c-0.37109,-1.0391 -0.75781,-1.9922 -1.1094,-3.0664c-0.54688,-1.6719 -1.3203,-3.207 -1.7773,-4.9492c-0.31641,-1.1445 -0.59766,-2.3242 -0.91406,-3.4883c-0.47656,-1.7266 -1.0234,-2.1484 -2.1484,-3.418c-0.54687,-0.61719 0,-0.24609 -0.30078,-0.72266c-1.4258,-2.1484 -3.9453,-4.4023 -5.9883,-6.0078c-1.0039,-0.79297 -1.5508,-1.3203 -2.4141,-2.2188c-1.3555,-1.4102 -2.6758,-2.8164 -3.7891,-4.4375c-0.84375,-1.2344 -1.4609,-2.3789 -2.168,-3.6797c-0.5625,-1.0234 0.75781,1.8477 0.75781,1.8477c0.96875,2.0078 1.9023,3.6641 3.1523,5.5117c0.77344,1.1289 1.4961,2.2539 2.2891,3.3828c0.38672,0.5625 0.93359,1.3203 1.0938,1.9922c1.1445,4.8281 2.9766,9.7422 5.0039,14.27c0.70312,1.5664 1.4258,3.1016 2.1836,4.6328c1.5859,3.293 2.7305,6.7812 3.6445,10.34c0.47656,1.7969 0.87891,3.5938 1.2852,5.4062c2.6758,9.8828 -2.9609,23.938 15.344,28.871c2.5,0.66797 3.5234,1.5859 2.8164,2.8164c-1.7617,0.17578 -3.6445,0.21094 -5.5664,0.07031c-1.9023,-0.16016 -3.8242,-0.51172 -5.6367,-1.1094c-1.7969,-0.52734 -3.5586,-1.3398 -5.0547,-2.4297c-1.4961,-1.1094 -2.7461,-2.5 -3.4336,-4.2617c-0.49219,-1.1641 -0.58203,-2.1328 -2.0781,-1.3047c-1.1445,0.63281 -4.8086,4.2617 -5.582,5.4258c-1.0391,1.5859 -2.0977,4.2461 -2.3945,6.0938c-0.19531,1.3398 -0.23047,2.6758 -0.44141,3.9805c-0.03515,0.26562 -0.19531,1.25 -0.61719,1.1094c-0.30078,-0.10547 -0.125,-1.3047 -0.10547,-1.6016c0.17578,-2.6055 0.10547,-4.1055 0.95313,-6.6602c0.75781,-2.2539 1.2148,-3.4688 2.6758,-5.3711c1.0742,-1.3906 1.832,-2.3945 2.6953,-3.9453c0.96875,-1.7773 1.7617,-3.2227 1.5312,-5.3203c-0.38672,-3.5391 -0.89844,-6.9922 -1.6562,-10.48c-1.7617,-8.1367 -3.5938,-15.977 -8.4531,-22.918c-1.0742,-1.7266 -2.2031,-3.3281 -3.4336,-4.7383c0,2.4648 0,5.1094 -0.33594,7.75c-0.37109,2.8008 -0.37109,5.6172 -2.4844,7.7344c-0.03515,-3.1367 -1.6719,-5.707 -3.1172,-8.3828c-0.65234,-1.2148 -1.1992,-1.4805 -1.6016,-3.0312c-0.45703,-1.7266 -0.35156,-2.9609 0.05469,-4.668c0.84375,-3.4336 0.63281,-5.9727 -0.80859,-9.2109c-0.40625,-0.91406 -1.0234,-1.8672 -1.4961,-2.8008c-0.51172,-1.0039 -0.79297,-1.6016 -1.2148,-2.6758c-0.86328,-2.2539 -1.2695,-4.5781 -2.0078,-6.8711c-0.33594,-1.0391 -0.5625,-1.9922 -0.95312,-3.0469c-0.38672,-1.0391 -0.70312,-2.1484 -1.0938,-3.2227c-0.49219,-1.3555 -0.73828,-2.9414 -1.1445,-4.3516c0.49219,1.6016 0.72266,3.082 1.3203,4.7031c0.40625,1.1094 0.75781,2.2383 1.1641,3.3477c0.35156,0.96875 0.61719,2.0273 0.95313,3.0117c0.51172,1.5156 0.84375,3.1367 1.3555,4.6836c0.30078,0.87891 0.59766,1.7969 1.0039,2.6406c0.24609,0.52734 -0.31641,-0.73828 -0.31641,-0.75781c-0.75781,-1.9219 -1.1992,-3.6445 -1.7266,-5.6172c-0.26562,-0.98828 -0.61719,-1.957 -0.91406,-2.9414c-0.28125,-0.95312 -0.66797,-1.957 -0.98828,-2.9062c-0.38672,-1.1445 -0.77344,-2.1484 -1.0742,-3.3125c-0.28125,-1.1094 -0.54688,-2.1484 -0.84375,-3.2578c-0.66797,-2.3438 -0.72266,-5.8672 -0.77344,-8.3477c-0.05469,-2.2031 -0.10547,-4.4219 -0.10547,-6.625c0,-1.7773 0.38672,-3.6992 0.49219,-5.4961c0.10547,-1.6367 0.38672,-3.2578 0.42188,-4.8984c0,-0.23047 0.01953,-0.33594 -0.03516,-0.54688c-0.26562,0.05469 -0.19531,0.16016 -0.23047,0.47656c-0.14062,1.2148 -0.19531,2.3789 -0.37109,3.5938c-0.14062,1.1445 -0.16016,2.2539 -0.33594,3.4336c-0.21094,1.4805 -0.33594,2.8008 -0.31641,4.2969c0,3.6641 -0.05468,7.6641 0.23047,11.289c0.125,1.4453 0.31641,2.3086 0.6875,3.6992c0.42188,1.5508 0.63281,2.9258 1.1797,4.4727c0.38672,1.1094 0.73828,2.2539 1.1094,3.3828c0.30078,0.93359 0.52734,1.9023 0.82812,2.8555c0.49219,1.5312 0.77344,3.2227 1.25,4.8086c0.59766,2.0078 1.0938,3.2773 2.043,5.1602c0.65234,1.2695 1.0742,1.957 1.4609,3.3633c0.80859,2.9062 0.58203,4.8281 -0.44141,7.6094c-0.58203,1.5312 -0.66797,2.4844 -0.91406,4.0703c-0.30078,2.0625 -0.80859,2.168 -1.7969,3.875c-1.2695,2.2031 -2.0977,4.4727 -2.6602,6.9414c-0.33594,1.4805 -0.58203,2.9961 -0.73828,4.543c-0.03515,2.5195 -0.14062,2.8008 1.25,4.9492c1.4609,2.2734 3.6992,4.2969 5.5117,6.3242c1.0039,1.1445 2.2383,3.3281 2.7656,4.7578c0.30078,0.82812 0.61719,1.6016 0.89844,2.4492c0.5625,1.6562 1.3203,3.293 1.9375,4.9492c0.26562,0.72266 0.75781,1.6914 1.1289,2.3789c0.38672,0.75781 0.72266,1.2695 1.0742,2.0977c0.14063,0.33594 0.73828,1.6367 0.6875,1.8828c-0.10547,0.51172 -0.58203,-0.17578 -0.6875,-0.35156c-0.52734,-0.95313 -0.87891,-1.8828 -1.4609,-2.8555c-0.38672,-0.61719 -0.80859,-1.4453 -1.1641,-2.0977c-0.33594,-0.61719 -0.61719,-1.4102 -0.91406,-2.0625c-0.65234,-1.4102 -1.2344,-2.8008 -1.8125,-4.2461c-1.2148,-2.9766 -2.5,-5.0547 -5.2148,-6.8867c-0.54688,-0.37109 -3.6289,-2.6055 -3.9102,-1.1289c-0.08984,0.45703 -0.03515,2.6055 -0.05468,3.2422c-0.05469,5.125 -0.31641,10.34 -1.4805,15.344c-0.42188,1.7969 -1.0039,6.8867 -1.5859,8.6133c-1.7773,3.6445 -2.8164,6.1641 -4.9336,6.5156c2.1133,-4.2266 1.4102,-9.1406 2.6758,-13.477c0.28125,-2.1484 0.44141,-4.2969 0.49219,-6.4453c0.17578,-6.5 -0.51172,-12.453 -1.3203,-18.863c-0.125,-0.98828 -0.05469,-1.6367 -0.28125,-2.6758c-0.17578,-0.82812 -0.30078,-1.4102 -0.40625,-2.2539c-0.38672,-2.7812 -0.79297,-5.5664 -1.1445,-8.3477c-0.08985,-1.9922 -0.10547,-3.9805 0,-5.9883c0.10547,-1.9922 0.31641,-3.9805 0.66797,-5.9727c-1.6719,1.4102 -3.2422,2.8906 -4.7383,4.4375c-1.4961,1.5508 -2.9062,3.1523 -4.2812,4.8281c-1.3398,1.9219 -2.7461,3.8047 -4.1758,5.6523c-1.25,1.6211 -1.6562,1.8672 -1.6016,4.0156c0.03515,1.6211 0.52734,3.2227 0.91406,4.793c0.65234,2.5898 1.4258,4.5781 2.7461,6.9219c0.61719,1.1094 1.0586,2.3594 1.2695,3.5938c0.42188,2.5352 0.42188,5.9883 0.44141,8.6133c0,0.82812 -0.125,1.957 -0.19531,2.8164c-0.10547,1.0938 -0.26562,2.0977 -0.33594,3.2227c-0.10547,1.7617 -0.125,3.1016 0.28125,4.8438c0.31641,1.3906 1.0586,2.6055 1.2148,4.0703c0.05468,0.47656 -0.23047,0.58203 -0.40625,0.01954c-0.28125,-0.96875 -0.44141,-1.5156 -0.82812,-2.4844c-0.6875,-1.6562 -0.93359,-3.4883 -0.91406,-5.2656c0.03515,-2.2031 0.35156,-4.2812 0.44141,-6.4453c0.05468,-1.1992 -0.07032,-2.9766 -0.14063,-4.2109c-0.125,-2.0977 -0.28125,-4.9336 -1.1992,-6.8008c-0.37109,-0.75781 -0.5625,-1.0742 -1.0391,-1.7773c-1.3398,-2.0273 -2.2539,-3.875 -3.3281,-6.0234c-0.35156,-0.6875 -1.9922,-3.6289 -2.9961,-2.9961c-0.59766,0.38672 -3.3633,3.9102 -3.9453,4.7031c-1.1445,1.5664 -1.1641,1.7773 -1.1797,3.6797c-0.01954,1.1445 0.40625,4.0352 0.65234,5.1797c0.26562,1.2148 0.61719,2.3086 0.82812,3.5234c0.16016,0.87891 0.37109,1.7617 0.52734,2.6602c0.19531,0.96875 0.54688,1.7422 0.70312,2.8008c0.17578,1.1992 0.38672,2.2539 0.47656,3.4688c0.08984,0.98828 0.26563,1.9023 0.33594,2.9062c0.17578,2.5195 0.17578,5.3555 0.14062,7.8906c0,0.19531 0.05468,1.1641 -0.33594,0.96875c-0.37109,-0.19531 -0.35156,-2.5 -0.35156,-2.9961c-0.07032,-2.6406 -0.125,-5.1953 -0.61719,-7.8047c-0.19531,-0.98828 -0.26563,-1.8828 -0.49219,-2.8906c-0.28125,-1.1797 -0.38672,-1.9375 -0.86328,-3.0664c-0.31641,-0.77344 -0.52734,-1.5664 -0.79297,-2.3594c-0.35156,-1.0391 -0.5625,-1.7773 -1.0391,-2.8008c-0.30078,-0.65234 -1.4609,-3.5391 -2.2383,-3.5234c-0.5625,0.01953 -1.2852,1.9922 -1.4961,2.5c-4.4023,10.586 -4.7734,22.02 -1.7266,33.027c-3.1719,-0.35156 -3.7344,-3.6289 -4.5781,-5.8125c-0.82812,-2.1836 -0.87891,-5.8672 -1.4102,-8.0859c-2.0273,-8.7383 -1.7617,-17.773 2.2539,-25.859c0.73828,-2.1484 1.6367,-4.2461 2.7109,-6.2891c1.0586,-2.043 2.2891,-4.0508 3.6797,-5.9727c1.1094,-2.0273 2.2188,-4.0352 3.2773,-6.0586c1.0586,-2.0273 2.0977,-4.0508 3.0312,-6.0781c0.6875,-1.6719 1.3203,-3.3633 1.8828,-5.0742c0.72266,-2.5195 1.2852,-5.125 2.3242,-7.6992c0.93359,-2.043 1.5312,-2.2891 1.5859,-4.793c0.03515,-1.4609 -0.125,-2.8164 -0.01954,-4.3164c0.16016,-2.3086 0.26562,-4.1914 0.93359,-6.4297c0.59766,-2.0273 0.98828,-3.9297 1.7422,-5.918c0.75781,-1.9727 0.59766,-3.3633 1.0391,-5.3203c0.33594,-1.4258 0.35156,-2.3438 0.45703,-3.75c0.10547,-1.4258 0.72266,-4.0352 1.3047,-5.3555c0.61719,-1.3203 1.0391,-1.9375 1.8828,-3.1172c0.84375,-1.1797 1.6367,-2.9766 1.9219,-4.4023c0.125,-0.65234 0.24609,-1.375 0.35156,-2.0273c0.54688,-3.0664 0.37109,-6.2188 0.47656,-9.3164c0.07032,-2.3438 1.1094,-4.9688 1.9219,-7.168c0.65234,-1.7969 0.58203,-3.5586 0.84375,-5.4062c0.49219,-3.5938 0.35156,-7.5742 0.40625,-11.219c0,-0.61719 -0.17578,-0.51172 -0.21094,-0.01954c-0.10547,1.7773 -0.07031,3.7695 -0.10547,5.5664c-0.03515,2.1133 -0.125,3.8594 -0.42188,5.9531c-0.26562,1.9922 -0.14062,3.3633 -0.93359,5.3359c-0.6875,1.7266 -1.6016,4.3516 -1.7969,6.1641c-0.14062,1.2695 -0.10547,2.8906 -0.14062,4.2266c-0.07031,2.2734 -0.16016,4.2461 -0.61719,6.5c-0.35156,1.7266 -0.30078,2.0977 -1.1094,3.75c-0.47656,0.96875 -0.66797,1.3398 -1.3203,2.1836c-1.1641,1.4961 -2.0273,3.2578 -2.5,5.1094c-0.37109,1.4805 -0.58203,2.1836 -0.70312,3.75c-0.125,1.4609 -0.30078,2.2188 -0.63281,3.6094c-0.35156,1.4453 -0.30078,2.6406 -0.86328,4.1211c-0.24609,0.65234 -0.52734,1.2695 -0.77344,1.9219c-0.59766,1.6016 -1.0742,3.1719 -1.6719,4.7734c-0.66797,1.7969 -0.91406,3.1172 -1.3203,4.9492c-0.17578,0.87891 -0.42188,1.6914 -0.59766,2.5703c-0.35156,1.7969 -0.52734,3.6797 -1.5664,5.2656c-0.38672,0.59766 -0.54688,0.93359 -0.84375,1.5664c-0.35156,0.72266 -0.77344,1.375 -1.2148,2.0273c-1.6367,2.4492 -3.1719,4.6328 -4.8086,6.6602c-1.2344,1.1445 -2.4492,2.2891 -3.6289,3.4883c-1.1797,1.1797 -2.3086,2.4141 -3.418,3.6641c-1.6914,1.4961 -3.1172,3.1367 -4.4219,4.8789c-1.3047,1.7422 -2.4648,3.5742 -3.5938,5.4414c-2.2539,4.0859 -4.3672,9.0195 -7.875,12.543c0.70312,-3.5234 0.72266,-6.8516 2.2891,-9.6875c1.25,-2.6055 3.1719,-9.1602 2.8164,-12.312c-1.9219,-0.72266 -3.2578,3.4883 -5.0391,3.7148c-2.3789,0.61719 -4.8438,4.4922 -6.7461,5.6172c-1.9219,1.1289 -9.3516,5.8672 -10.922,7.3789c-9.6016,10.234 -8.4375,17.949 -19.008,27.797c2.8164,-11.961 9.1602,-26.738 19.289,-34.734c1.9375,-1.375 3.8945,-2.7109 5.7773,-4.0156c1.8828,-1.3047 3.7148,-2.6055 5.4062,-3.875c1.6914,-1.4102 3.1719,-2.8711 4.3672,-4.4375c1.5664,-1.5664 2.9062,-3.1719 3.9805,-4.8281c1.3047,-1.7617 2.7461,-3.3633 5.6523,-4.4375c4.1055,-1.4102 5.4062,-6.6406 8.0312,-9.8281c0.47656,-0.58203 0.86328,-0.91406 1.375,-1.4453c1.4102,-1.4805 1.2148,-3.3633 1.9922,-5.2305c0.5625,-1.3555 2.2188,-3.1719 3.1719,-4.4375c1.1797,-1.5664 1.7422,-1.8828 2.3594,-3.8594c0.26562,-0.84375 0.61719,-1.6914 0.87891,-2.5352c0.35156,-1.1445 -0.33594,-1.2148 -0.87891,-0.28125c-0.79297,1.3203 -1.0586,2.9766 -2.0625,4.1211c-0.54688,0.61719 -1.1797,1.2344 -1.7422,1.8672c-1.375,1.5312 -3.0117,2.7109 -4.2617,4.332c-0.98828,1.2695 -1.5664,2.4141 -2.7656,3.5742c-1.3047,1.25 -2.2188,2.3242 -3.3633,3.6992c-1.1445,1.3555 -2.168,2.3945 -3.9102,2.9766l-0.28125,0.08985c-3.8047,1.2148 -5.2852,2.8711 -8.6133,5.0547c-0.96875,0.63281 -2.0273,1.0742 -3.0664,1.6367c-1.707,1.0039 -3.3828,2.1133 -5.0195,3.2578c-1.5312,1.1289 -3.0469,2.2539 -4.543,3.3828c-1.8672,1.2852 -3.6992,2.6055 -5.4961,3.9805c-8.4531,6.4648 -16.434,13.492 -24.414,20.539c-1.0742,0.95312 -2.1328,2.168 -3.1719,3.207c-1.2344,1.25 -2.4844,2.4844 -3.7344,3.7148c-0.66797,0.65234 -2.0078,2.3086 -2.4844,3.1172c-0.58203,0.98828 -0.87891,1.8672 -1.3203,2.9062c-0.75781,1.7773 -1.2852,3.4531 -1.8125,5.3008c-0.07031,0.26562 -0.61719,2.3242 -1.1797,1.6914c-0.26562,-0.30078 0.38672,-2.5703 0.49219,-2.9961c0.42188,-1.6719 0.91406,-3.207 1.5312,-4.8281c0.51172,-1.3398 0.6875,-2.0781 1.4961,-3.3633c0.47656,-0.73828 1.1797,-1.6016 1.7266,-2.3086c0.66797,-0.84375 1.6719,-1.7969 2.4297,-2.625c1.375,-1.4961 2.4844,-2.7109 3.6445,-4.3867c3.8242,-5.4062 8.4727,-11.273 13.336,-15.746c1.7422,-1.6016 3.5586,-3.0664 5.4961,-4.4219c1.6211,-1.1445 3.293,-2.1836 5.0547,-3.1172c1.4102,-1.4102 2.1133,-3.5234 2.7305,-4.7383c0.26562,-0.84375 0.30078,-1.832 -0.24609,-2.5195c-1.1289,-1.4609 -2.7656,0.70312 -3.8047,1.375c-1.9922,1.3203 -4.0156,1.9219 -6.0586,2.625c-10.129,6.3594 -20.223,13.863 -27.285,23.656c-0.58203,0.80859 -1.1641,1.9219 -1.6719,2.7812c-0.35156,0.58203 -0.63281,1.1641 -0.98828,1.7617c-0.87891,1.4453 -1.7969,2.8008 -2.5703,4.2969c-0.52734,0.96875 -0.95312,1.7617 -1.4258,2.7812c-0.47656,1.0391 -1.0742,2.1133 -1.5859,3.1719c-0.38672,0.77344 -0.75781,1.375 -1.0742,2.2188c-0.65234,1.6719 -1.3906,3.6797 -1.6914,5.4258c-0.125,0.6875 -0.24609,1.3398 -0.37109,2.0078c-0.08984,0.42188 0.17578,-0.54688 0.17578,-0.54688c0.16016,-0.6875 0.26563,-1.4102 0.44141,-2.0977c-0.14062,0.63281 -0.45703,3.1016 -1.0234,3.3633c-0.70312,0.33594 -0.31641,-1.6211 -0.28125,-1.9023c0.17578,-1.4258 0.30078,-2.2188 0.72266,-3.6289c0.52734,-1.7969 0.93359,-3.3125 1.7266,-5.0195c0.38672,-0.82812 0.72266,-1.8125 1.1094,-2.6758c0.51172,-1.1641 0.86328,-2.2891 1.4102,-3.4531c0.38672,-0.84375 0.65234,-1.5508 1.1289,-2.4141c0.72266,-1.3203 1.3203,-2.3945 1.8828,-3.8047c0.44141,-1.1094 0.80859,-1.9727 1.1797,-3.1016c0.59766,-1.8672 0.98828,-3.5586 0.98828,-5.5312c-5.6367,0.47656 -12.348,1.3555 -17.543,3.6094c-2.4297,1.0586 -4.5273,2.8008 -6.5352,4.5273c-1.0039,0.86328 -1.8672,1.6562 -2.9258,2.4844c-0.80859,0.61719 -1.5664,1.1992 -2.3594,1.8477c-2.3789,1.9922 -4.1406,3.418 -5.7422,6.1641c-0.70312,1.2148 -0.86328,2.8008 -1.4453,3.7148c-0.35156,0.54688 -0.91406,0.59766 -0.66797,-0.30078c0.26562,-0.89844 0.47656,-1.9023 0.75781,-2.7656c0.49219,-1.5664 1.9727,-3.7148 3.082,-4.9492c1.0938,-1.2148 2.3945,-2.5195 3.5742,-3.6445c0.54688,-0.52734 1.1094,-1.0039 1.6562,-1.5312c1.1445,-1.1094 2.2539,-2.4141 3.3633,-3.5938c1.6016,-1.6562 3.082,-3.1172 4.8789,-4.5625c2.7109,-2.1836 5.7773,-4.4023 9.2656,-5.1094c0.26562,-0.05469 0.51172,-0.08984 0.77344,-0.125c13.371,-0.70312 20.414,-10.551 31.035,-16.312c1.4453,-0.70312 2.9258,-1.3047 4.4219,-1.7969c4.9688,-1.4805 7.168,-1.2344 11.469,-5.9023c2.9766,-3.2227 6.7656,-2.5352 9.9883,-3.5938l-9.5312,-3.3633s-6.9766,-2.9961 -10.656,-2.9961c-3.6797,0 -7.2227,2.3945 -9.793,4.4023c-2.5703,1.9922 -9.4219,8.6133 -11.52,10.605c-2.0781,2.0078 -3.3125,3.6094 -5.5469,5.6172c-2.2188,2.0273 -6.5859,2.3945 -5.6172,2.1836c0.49219,-0.10547 2.4492,-2.0273 3.9805,-3.8594c1.5312,-1.8125 2.6758,-3.5234 1.5312,-3.1719c-2.2539,0.70312 -5.2656,-0.80859 -7.2734,-1.4961c-1.0039,-0.35156 -4.4023,-1.2344 -7.5195,-2.0078c-6.8516,-4.0859 -11.254,2.0781 -15.57,6.5508c-1.4453,1.4961 -2.4141,2.7812 -3.5938,4.4922c-0.61719,0.91406 -1.1797,1.6562 -1.7422,2.6055c-0.96875,1.6367 -2.0781,3.082 -3.293,4.5078c-0.51172,0.58203 -0.84375,1.0039 -1.4258,1.5664c-1.3203,1.3047 -2.5,2.6055 -3.8945,3.8594c-0.84375,0.75781 -3.0312,2.8906 -3.5586,3.8047c-0.23047,0.37109 -1.4102,3.0312 -1.8672,2.4844c-0.19531,-0.23047 0.33594,-1.0391 0.45703,-1.2852c0.86328,-1.7422 0.77344,-1.7969 2.1484,-3.293c0.84375,-0.93359 1.6016,-1.7266 2.5195,-2.5898c1.2695,-1.1992 2.4844,-2.6602 3.6797,-3.9453c1.0742,-1.1445 2.5,-3.2422 3.2422,-4.6133c0.93359,-1.7266 1.7266,-3.5391 2.6055,-5.3203c1.1445,-2.3242 1.6016,-3.5742 3.418,-5.5117c0.86328,-0.91406 2.0625,-1.8828 2.8008,-2.7812c0.38672,-0.45703 0.70313,-0.95312 0.125,-1.3906c-8.4531,-5.6367 -18.828,-1.9375 -23.059,8.6133c-0.07031,0.84375 -1.4609,2.4648 -2.0273,3.1875c-0.80859,1.0234 -1.4102,1.6914 -2.3242,2.5898c-1.0586,1.0391 -1.9219,2.1484 -3.0312,3.1875c-1.2344,1.1797 -2.3789,2.3789 -3.6641,3.5039c-1.6914,1.4805 -2.8359,2.7109 -4,4.6484c-0.125,0.21094 -1.5859,2.9062 -1.9727,2.168c-0.16016,-0.31641 0.73828,-1.6914 0.91406,-2.0273c0.95312,-1.707 1.6719,-2.8359 2.9961,-4.2969c0.96875,-1.0742 2.168,-2.0781 3.1523,-3.1875c0.98828,-1.1289 1.9023,-2.0977 2.8008,-3.3125c0.61719,-0.84375 1.2148,-1.6719 1.8672,-2.5195c0.96875,-1.2695 1.7266,-2.7109 2.2539,-4.2109c0.59766,-1.7969 1.2344,-2.4141 2.2539,-3.9648c0.77344,-1.1797 1.6367,-2.5703 1.6562,-4.0156c-9.8477,2.8164 -24.996,5.9883 -34.137,2.4648c2.1133,0 4.2266,1.4102 7.0469,0.70312c21.121,-3.5234 41.516,-14.074 62.672,-8.0859c1.9219,0.42188 3.75,0.84375 5.4766,1.2148c3.4336,0.75781 6.3594,1.3398 8.4375,1.3398c8.332,0 11.996,-10.797 20.574,-15.605c8.5781,-4.793 16.102,-4.8438 23.199,-1.6367c3.8594,1.7266 8.2617,1.2695 12.895,1.8477c1.3906,-2.043 2.5898,-2.0625 5.7617,-3.2578c2.1328,-0.80859 4.2812,-1.6367 6.4102,-2.5195c6.2695,-2.6055 6.8164,-3.2773 11.66,-9.0703c1.7266,-8.0156 3.1875,-4.3516 3.3984,-13.758l1.3906,-9.5312c1.9023,-12.348 3.1016,-24.836 2.8164,-37.324c-0.01953,-0.96875 -0.10547,-2.3594 1.2695,-1.375c2.0977,1.4961 3.2227,2.9414 4.793,4.9141c0.86328,1.0742 1.5664,1.6914 2.2539,2.9961c0.75781,1.4102 1.1094,2.3594 1.4258,3.9453c0.24609,1.2695 0.61719,2.3789 0.82812,3.6641c0.16016,0.93359 0.42188,1.8477 0.65234,2.7656c0.17578,0.66797 0.44141,1.3203 0.63281,2.0273c0.16016,0.5625 0.93359,3.0664 1.2344,3.293c0.38672,0.28125 0.28125,-0.44141 0.23047,-0.59766c-0.23047,-0.98828 -0.63281,-1.9922 -0.87891,-3.0117c-0.19531,-0.75781 -0.44141,-1.4102 -0.61719,-2.1836c-0.19531,-0.91406 -0.38672,-1.5508 -0.52734,-2.5195c-0.17578,-1.3047 -0.54688,-2.5352 -0.75781,-3.875c-0.37109,-2.4297 -1.4258,-4.6328 -2.9258,-6.5703c-0.77344,-1.0039 -1.4805,-2.2383 -2.2539,-3.3125c-0.87891,-1.2148 -1.7773,-2.3945 -2.5,-3.7148c-1.1094,-2.043 -2.2383,-3.7891 -3.0312,-6.0078c-0.38672,-1.0742 -0.58203,-1.6367 -0.73828,-2.8008c-0.93359,-7.3789 -2.6602,-14.812 -5.8125,-21.578c-0.87891,-1.9023 2.0625,-1.1797 2.8906,-0.84375c1.1641,0.45703 2.3789,1.2695 3.4883,1.9219c1.5312,0.87891 2.625,1.5664 4.0352,2.6406c0.30078,0.23047 1.6562,1.3398 1.957,0.77344c0.23047,-0.42187 -1.0938,-1.4453 -1.4102,-1.7422c-1.8672,-1.6367 -3.9297,-2.9062 -5.8477,-4.5078c-1.3398,-1.0938 -3.0469,-2.043 -4.5625,-2.8906c-1.9023,-1.0742 -2.0781,-0.87891 -3.6094,-2.7305c-0.95312,-1.1445 -1.7617,-3.293 -2.3945,-4.7383c-5.832,-12.945 -12.613,-22.969 -25.734,-29.469c-10.41,-5.1445 -22.477,-6.7461 -33.996,-6.8711c-8.5977,0 -15.043,0 -21.312,1.9219c-31.23,11.52 -48.793,32.656 -90.223,24.961c-2.1484,0 -0.16016,-1.9219 1.9922,-1.9219c43.754,9.6016 68.766,-24.961 104.79,-30.719c-11.219,-5.7617 -26.422,-7.6797 -37.484,-11.52c-19.008,3.8398 -36.023,5.7617 -55.996,-1.9219c-0.16016,-1.9219 -0.16016,-1.9219 -0.16016,-1.9219c19.977,7.6797 36.992,5.7617 51.539,0c-15.309,-9.3516 -27.496,-22.863 -32.867,-38.609c-1.6719,-4.9141 0.70312,-2.9414 2.3438,0.16016c2.2539,4.2969 3.5938,7.3984 6.4297,11.609c22.828,33.906 67.992,36.992 106.16,40.215l0.66797,0.07031c-8.9141,-12.242 -18.215,-23.902 -25.895,-36.777c-1.2695,-2.1484 -0.51172,-1.5312 -3.1875,-1.9922c-11.941,-2.168 -16.699,-4.7578 -26.914,-10.551c-4.1211,-2.3438 -8.8438,-3.3281 -13.512,-3.8594c-2.3945,-0.28125 -5.0547,0.125 -7.6797,-0.01953c-2.7461,-0.14062 -6.7656,-0.49219 -9.3867,-1.4102c-4.7188,-1.8672 -8.8438,-5.4961 -11.645,-9.3359c-1.375,-1.9219 3.9453,3.1172 3.9805,3.1367c5.8828,4.4922 9.3516,4.5781 16.504,5.3008c2.9414,0.30078 9.1953,0.61719 8.7734,-3.293c-0.24609,-2.2734 -4.0703,-4.8438 -5.9375,-6.9219c-5.7422,-6.4453 -10.797,-15.043 -14.09,-22.633c2.8555,-0.03516 1.8672,-0.45703 3.3633,2.2188c4.8281,8.6328 10.605,17.613 18.266,24.609c3.5586,3.2422 4.9336,5.2852 9.5117,7.9609c8.5625,5.0039 18.25,8.8438 28.289,9.3008c-1.5156,-4.3164 -3.4531,-8.668 -5.0195,-13.07c-2.7461,-7.7344 -4.7188,-14.848 -6.8359,-22.668c-1.2344,-4.5977 -3.8047,-5.0898 -7.5391,-8.1367c-3.3281,-2.7656 -6.1836,-6.0078 -9.3164,-8.5781c-2.625,-2.1484 -5.0742,-3.0117 -8.1562,-4.4219c-3.2227,-1.4805 3.0312,-0.08984 3.5938,0.08984c8.5078,2.8906 15.449,11.289 17.754,12.047c2.4844,0.80859 0.84375,-5.582 0.65234,-6.8867c-1.3906,-8.7383 -3.4883,-17.281 -3.4531,-26.016c0,-1.4805 -0.19531,-2.8711 1.7266,-2.1484c0.80859,2.8906 1.9219,6.7656 2.3242,9.918c0.91406,7.0117 2.5898,13.457 3.7344,20.363c0.54688,3.3281 1.1797,6.9922 3.7695,9.7227c2.6055,2.5 4.9336,-2.8008 5.7422,-4.2617c2.2188,-8.8945 3.4883,-2.4844 6.4805,-11.062c-0.35156,-3.3125 1.8672,-7.8203 1.1289,-1.7969c-0.01953,7.9961 -3.4531,4.0156 -4.8633,16.348c-2.5547,5.918 -7.3086,5.3555 -4.2461,14.305c0.44141,1.2852 2.3594,8.4375 5.3555,14.039c2.4141,4.5273 5.8828,7.6641 6.3047,8.6133c4.4727,10.059 4.9141,-3.8594 8.1016,-8.332c3.0117,-4.1055 5.0898,-7.2383 9.6367,-10.215c2.7812,-1.707 4.332,-0.38672 3.1016,-0.05469c-1.1641,0.33594 -2.3594,2.4648 -3.1016,3.418c-3.5234,4.5273 -4.8789,6.9414 -6.5156,12.348c-2.0977,8.0156 -3.1719,13.457 0.51172,21.754c1.3398,2.9961 5.2852,6.5859 7.5742,9.5469c3.2578,4.2109 6.6953,8.1562 9.9688,12.418c1.1992,1.5508 4.2266,6.2344 6.5156,5.7969c1.2148,-0.23047 2.168,-1.6562 2.7656,-2.5c2.9062,-4.4219 2.5195,-10.797 2.6758,-16.012c0.16016,-5.25 0.26562,-9.1055 1.1797,-14.32c0.84375,-4.793 0.75781,-9.4766 1.6367,-14.41c0.58203,-3.2773 1.6562,-8.6836 0,-11.871c-1.25,-2.043 -4.1914,-4.3672 -6.043,-6.1641c-4.7734,-4.8438 -8.7891,-9.4766 -13.246,-14.496c-5.2656,-5.9375 -9,-6.3047 -14.32,-10.867c-5.1797,-4.4375 -7.62889,-11.379 -7.75,-17.422c-0.08984,-4.5977 1.63671,-0.33594 1.9219,1.375c0.98828,5.582 0.19531,8.0508 5.07421,12.895c4.7031,4.6484 10.44499,6.0586 15.58999,11.184c2.2031,2.2539 10.375,12.047 16.383,14.812c1.25,0.58203 2.7109,3.0312 3.7148,2.8711c1.2852,-0.21094 1.99221,-3.3633 2.5352,-5.3203c1.5312,-5.4414 2.1133,-14.461 1.0391,-20.152c-0.98827,-5.2656 -0.6875,-3.75 0.33594,-7.9453c-0.19531,0.125 0.23047,-1.1445 0.05469,-1.0039c-6.8164,-9.6875 -13.086,-19.711 -17.859,-30.668c-20.766,-2.8555 -43.066,-8.2773 -51.82,-29.734c1.3906,-0.5625 2.4297,0.54688 4.5078,3.0664c5.6914,12.418 19.184,17.773 33.117,20.785c4.4023,0.95312 8.8438,1.6719 13.105,2.3086c-6.5508,-17.156 -6.5703,-21.594 -4.9844,-40.32c0.35156,-1.8477 1.2344,-2.5195 2.7109,-2.3945c-1.3906,16.594 0.37109,25.77 5.125,38.645c4.332,11.73 10.586,22.352 17.578,32.57c0.75781,-5.7773 1.5508,-13.652 3.5586,-16.559c0.49219,2.1328 -0.54688,21.086 -1.0039,24.324c-0.6875,4.9492 0.5625,7.3281 0.63281,11.996c0.125,8.8594 -3.207,17.684 -4.0156,26.547c-0.47656,5.6172 -1.0039,10.516 -1.8477,16.102c-0.66797,4.5273 1.9023,5.0039 5.8125,2.9414c7.6797,-4.0703 7.8398,-15.324 16.207,-20.73c0.80859,-0.49219 2.8008,-1.4258 4.8789,-2.2383l0.17578,2.0977c-0.6875,0.26562 -1.1641,0.44141 -1.2148,0.45703c-7.168,3.1172 -8.4531,10.727 -11.996,16.715c-3.4531,5.707 -6.1289,7.2227 -10.797,11.66c-5.3359,5.0898 -3.9102,9.793 -3.6797,16.398c0.31641,8.8789 -0.26562,14.391 -1.5664,23.004c-0.6875,4.4922 -0.26562,5.6914 3.0117,9.4766c6.3594,6.9766 12.258,15.094 16.961,23.27c0.59766,1.0391 0.91406,2.168 1.2344,3.3281c0.19531,0.6875 0.61719,1.4102 0.84375,2.1484c0.5625,1.832 0.80859,5.2148 0.87891,7.1875c0.03516,0.72266 -0.19531,1.9375 -0.24609,2.7461c-0.07031,0.79297 -0.08984,1.2344 -0.23047,2.043c-0.21094,1.1094 -0.26563,2.1484 -0.51172,3.2227c-0.66797,2.8906 -0.5625,6.3398 -0.58203,9.3164c0,0.35156 -0.05469,1.8672 0.21094,2.043c0.58203,0.38672 0.5625,-2.4844 0.5625,-2.7461c0.08985,-2.8555 0.08985,-5.8477 0.87891,-8.5977c0.28125,-0.95312 0.35156,-1.9219 0.61719,-2.9414c0.17578,-0.6875 0.31641,-1.1445 0.42188,-1.8828c0.125,-0.95312 0.33594,-1.6562 0.52734,-2.5547c0.16016,-0.73828 0.19531,-2.2734 0.26562,-3.1016c0.125,-1.7773 0.24609,-3.6094 0.40625,-5.3711c0.16016,-1.9023 1.0039,-3.1172 1.8672,-4.7734c0.98828,-1.9023 1.9023,-3.8047 2.7656,-5.7617c3.6289,-8.207 7.6992,-17.402 10.145,-29.168c-12.719,-5.1094 -17.508,-17.211 -21.824,-28.816c0.66797,-4.5625 -0.10547,-5.4961 3.1875,-2.0977c3.5039,9.4219 9.3711,20.309 19.676,25.137c1.7617,-11.715 1.8477,-25.824 -1.375,-43.633c-0.52734,-2.8555 -1.6914,-6.5859 -3.0469,-10.922c-4.8281,-15.379 -11.062,-34.172 -1.8828,-60.312c-2.0977,-8.2266 -14.039,-24.133 -17.262,-34.242c-4.4375,-12.031 -7.875,-26.121 -6.5859,-41.586c1.7422,-3.5234 2.5,0.95312 2.4648,4.2266c-1.2344,14.742 2.9766,23.566 7.2031,35.02c0.28125,0.77344 0.58203,1.5312 0.87891,2.2891c16.383,-0.72266 41.746,-6.8164 48.668,-25.895c2.8164,-2.9609 1.832,-2.5195 2.0781,0.84375c-8.3477,20.484 -29.875,25.348 -49.812,28.359c3.75,8.332 9.4219,17.035 14.621,24.535c1.5664,-3.9805 1.3203,-3.9453 3.6094,-8.1211c1.7969,-2.0781 4.4023,-1.957 2.8164,1.2344c-12.188,22.352 -11.398,36.797 -3.1016,60.469c0.77344,2.2188 2.043,3.0469 4.332,1.5156c6.3398,-4.793 8.5078,-15.816 7.6797,-22.898c-0.72266,-6.1641 -1.1445,-9.5469 -0.24609,-15.816c0.125,-0.80859 0.75781,-6.2344 2.2734,-5.9023c0.86328,0.19531 0.07031,4.457 0,5.125c-0.70312,5.9883 -0.59766,9.1055 0.23047,15.023c0.61719,4.2812 0.65234,6.7305 0.21094,11.027c-0.03515,0.31641 -0.07031,0.63281 -0.10547,0.96875c-0.82812,5.6719 -3.8398,13.156 -6.3945,18.406c-3.3477,6.8164 -1.9219,8.7383 0.54688,15.359c0.23047,0.65234 0.47656,1.3047 0.72266,1.957c8.668,47.945 -7.3086,62.371 -10.922,108.14c1.5508,3.8594 2.5703,7.1172 3.4883,11.148c0.42188,1.832 0.73828,3.7148 1.1445,5.5664c0.21094,0.98828 0.49219,1.8125 0.65234,2.8359c0.30078,1.7617 0.42187,3.9102 0.54687,5.707c0.10547,1.3906 0.19531,2.7812 0.26563,4.1758c0.05469,0.87891 -0.03516,2.0781 -0.07031,2.9766c-0.07031,1.8828 -0.91406,4.0859 -1.5859,5.8477c-0.42188,1.0938 -1.0039,2.1836 -1.4258,3.293c-0.54688,1.4102 -1.0391,2.5898 -1.4961,4.0508c-0.26562,0.82813 -0.47656,1.4258 -0.65234,2.3086c-0.23047,1.0938 -0.42188,1.832 -0.54688,2.9766c-0.19531,1.8828 -0.59766,2.8008 -0.30078,4.793c0.16016,1.0742 0.23047,2.0273 0.45703,3.1016c0.03515,0.14062 0.31641,1.6914 0.31641,1.6914c0.17578,0.33594 0.31641,-0.19531 0.31641,-0.45703c-0.01953,-0.79297 -0.35156,-1.8125 -0.42188,-2.6758c-0.16016,-1.7969 -0.40625,-2.5703 -0.125,-4.457c0.125,-0.80859 0.26562,-1.6016 0.38672,-2.4297c0.35156,-2.6055 1.5312,-5.8125 2.6055,-8.2266c0.6875,-1.5664 1.4609,-3.0312 2.0977,-4.6328c0.77344,-1.9727 1.4258,-3.3828 1.6016,-5.5664c0.08984,-1.0391 0.24609,-1.9375 0.26562,-2.9961c0.07031,-3.1016 0.26563,-6.2695 0.23047,-9.3711c-0.01953,-1.7773 -0.30078,-3.3477 -0.23047,-5.1602c0.08984,-1.8477 0.35156,-2.5352 0.86328,-4.2969c6.7461,-22.562 14.199,-40.406 30.297,-58.074c3.293,-3.7891 3.6992,-4.9844 3.0117,-9.4766c-1.3047,-8.6133 -1.8672,-14.125 -1.5664,-23.004c0.23047,-6.625 1.6562,-11.324 -3.6797,-16.398c-4.668,-4.4375 -6.8359,-6.2344 -10.797,-11.66c-3.2422,-4.4219 -2.7109,-4.8633 4.0859,0.91406c1.2695,1.0742 2.625,2.0625 3.9805,2.7812c3.8945,2.0625 6.4805,1.6016 5.8125,-2.9414c-0.82812,-5.582 -1.375,-10.465 -1.8477,-16.102c-0.79297,-8.8594 -4.1211,-17.684 -4.0156,-26.547c0.07031,-4.668 1.3203,-7.0469 0.61719,-11.996c-0.45703,-3.2422 -1.4961,-22.195 -0.98828,-24.324c2.168,3.1172 2.9258,12.031 3.7344,17.844c13.211,-19.043 22.195,-37.344 24.238,-58.938c0.31641,-3.3477 1.4805,-6.3594 1.4453,-9.8828c0.70312,-1.5664 1.5508,-2.6055 2.2031,-0.38672c-0.77344,30.859 -7.9961,48.773 -25.543,73.664c-0.33594,0.61719 -0.66797,1.2148 -1.0039,1.832c1.1094,5.1445 1.375,1.5312 0.31641,7.1328c-1.0742,5.707 -0.47656,14.727 1.0391,20.152c0.54687,1.957 1.2695,5.0898 2.5352,5.3203c1.0039,0.16016 2.4492,-2.2891 3.7148,-2.8711c6.0078,-2.7461 14.16,-12.543 16.383,-14.812c5.125,-5.125 10.867,-6.5156 15.59,-11.184c4.8984,-4.8281 4.0859,-7.3086 5.0742,-12.895c0.30078,-1.7266 2.0078,-5.9883 1.9219,-1.375c-0.125,6.043 -2.5703,12.98 -7.75,17.422c-5.3203,4.5625 -9.0547,4.9336 -14.32,10.867c-4.457,5.0195 -8.4727,9.6523 -13.246,14.496c-1.832,1.7969 -4.7734,4.1406 -6.043,6.1641c-1.6562,3.1875 -0.58203,8.5977 0,11.871c0.87891,4.9336 0.79297,9.6016 1.6367,14.41c0.91406,5.1953 1.0039,9.0547 1.1797,14.32c0.16016,5.2148 -0.23047,11.59 2.6758,16.012c0.59766,0.84375 1.5508,2.2734 2.7656,2.5c2.2891,0.44141 5.3203,-4.2461 6.5156,-5.7969c3.2773,-4.2617 6.7109,-8.207 9.9688,-12.418c2.2734,-2.9609 6.2344,-6.5352 7.5742,-9.5469c3.6797,-8.2773 2.6055,-13.738 0.51172,-21.754c-1.6367,-5.3906 -2.9961,-7.8203 -6.5156,-12.348c-0.73828,-0.95312 -1.957,-3.082 -3.1016,-3.418c-1.2344,-0.33594 0.31641,-1.6562 3.1016,0.05469c4.5625,2.9766 6.625,6.0938 9.6367,10.215c3.1875,4.4727 3.6289,18.391 8.1016,8.332c0.42188,-0.95312 3.8945,-4.0859 6.3047,-8.6133c2.9766,-5.6016 4.9141,-12.754 5.3555,-14.039c3.0664,-8.9492 -1.707,-8.3828 -4.2617,-14.305c-3.2422,-7.5039 -4.0703,-10.586 -3.7148,-14.742c0.77344,0.45703 1.6367,0.80859 2.5352,1.0234c0.33594,3.0469 1.4258,5.8828 3.9453,10.234c0.80859,1.4609 3.1367,6.7656 5.7422,4.2617c2.5898,-2.7461 3.207,-6.3945 3.7695,-9.7227c1.1445,-6.9062 2.8359,-13.352 3.7344,-20.363c0.40625,-3.1523 0.45703,-7.4688 1.2695,-10.355c1.9219,-0.72266 1.707,0.6875 1.7266,2.1484c0.03516,8.7383 -1.0039,17.719 -2.4141,26.457c-0.21094,1.3203 -1.8477,7.6992 0.65234,6.8867c2.3086,-0.75781 9.2305,-9.1602 17.754,-12.047c0.5625,-0.17578 6.8164,-1.5664 3.5938,-0.08984c-3.082,1.4102 -5.5312,2.2734 -8.1562,4.4219c-3.1367,2.5703 -6.0078,5.8125 -9.3164,8.5781c-3.7148,3.0469 -6.2891,3.5391 -7.5391,8.1367c-2.1133,7.8203 -4.1055,14.918 -6.8359,22.668c-1.5664,4.4023 -3.5234,8.7539 -5.0195,13.07c10.039,-0.45703 19.711,-4.2812 28.289,-9.3008c4.5625,-2.6758 5.9531,-4.7188 9.5117,-7.9609c7.6641,-6.9922 13.441,-15.977 18.266,-24.609c1.4961,-2.6758 0.51172,-2.2539 3.3633,-2.2188c-3.3125,7.5938 -8.3672,16.188 -14.109,22.633c-1.8477,2.0625 -5.6914,4.6484 -5.9375,6.9219c-0.42188,3.9102 5.832,3.5938 8.7734,3.293c7.1523,-0.72266 10.621,-0.80859 16.504,-5.3008c0.01953,-0.01953 4,-2.6758 2.6055,-0.75781c-2.8008,3.8594 -5.5469,5.1602 -10.305,6.957c-2.5898,0.98828 -6.625,1.2695 -9.3711,1.4102c-2.625,0.125 -5.2852,-0.26562 -7.6797,0.01953c-4.668,0.52734 -9.3867,1.5312 -13.512,3.8594c-10.234,5.7773 -14.988,8.3828 -26.914,10.551c-2.6758,0.47656 -1.9219,-0.16016 -3.1875,1.9922c-7.6992,12.875 -16.996,24.535 -25.895,36.777l0.66797,-0.07031c38.172,-3.2227 83.336,-6.3047 106.16,-40.215c2.8359,-4.2109 4.1758,-7.3086 6.4297,-11.609c1.6367,-3.1172 4.0156,-5.0742 2.3242,-0.16016c-5.3555,15.746 -17.562,29.258 -32.852,38.609c14.551,5.7617 31.566,7.6797 51.539,0l-0.16016,1.9219c-19.977,7.6797 -36.992,5.7617 -55.996,1.9219c-11.062,3.8398 -26.246,5.7617 -37.484,11.52c36.023,5.7617 61.035,40.336 104.79,30.719c2.1484,0 4.1406,1.9219 1.9922,1.9219c-41.445,7.6797 -58.992,-13.441 -90.223,-24.961c-6.2695,-1.9219 -12.719,-1.9219 -21.312,-1.9219c-48.441,0.49219 -55.625,27.672 -64.012,46.098l0.13041,0.024zm179.77,-172.97c15.711,-4.9688 22.707,-19.871 15.711,-33.133c-15.711,3.3125 -22.707,19.871 -15.711,33.133zm-270.88,180.85c-11.785,-8.0859 -13.512,-24.465 -2.4844,-34.227c10.305,7.082 12.047,23.461 2.4844,34.227zm103.43,5.6016c12.895,-7.6641 15.852,-24.695 4.9688,-35.668c-11.289,6.7109 -14.234,23.746 -4.9688,35.668zm-249.67,-192.05c-14.551,-5.4766 -18.461,-19.57 -9.2305,-29.488c13.035,6.7109 18.461,19.57 9.2305,29.488zm34.277,87.262c-10.746,-4.7031 -13.617,-16.77 -6.8164,-25.258c9.6172,5.7422 13.617,16.77 6.8164,25.258zm79.848,32.094c-12.629,-3.1367 -18.004,-15.801 -12.152,-26.352c11.59,4.5078 18.004,15.801 12.152,26.352zm-26.297,-46.203c-10.465,-7.6992 -10.641,-21.473 -1.1992,-28.992c9,8.5781 10.641,21.473 1.1992,28.992zm86.926,72.766c5.7617,-10.391 0.65234,-21.879 -10.074,-24.535c-4.1914,10.551 -0.63281,21.879 10.074,24.535zm8.6133,10.586c11.309,-6.4102 13.105,-20.062 4.6328,-28.66c-9.9531,7.4492 -13.105,20.062 -4.6328,28.66zm31.09,-1.1445c11.309,-6.4102 13.105,-20.062 4.6328,-28.66c-9.9531,7.4492 -13.105,20.062 -4.6328,28.66zm-172.04,-28.73c8.8438,-9.5469 22.527,-8.1562 28.941,2.0781c-9.5312,7.9805 -22.527,8.1562 -28.941,-2.0781zm40.391,-12.402c-5.125,-11.961 1.707,-23.902 13.652,-25.613c3.418,11.961 -1.707,23.902 -13.652,25.613zm56.102,-9.9883c-5.3555,-10.727 0,-24.133 12.066,-26.809c6.6953,10.727 -1.3398,22.793 -12.066,26.809zm39.473,19.57c5.3203,-11.871 -1.3398,-23.922 -13.266,-25.805c-3.5938,11.906 1.3398,23.922 13.266,25.805zm58.516,8.5078c1.7617,-12.875 -8.0156,-22.582 -19.992,-21.031c-0.10547,12.438 8.0156,22.582 19.992,21.031zm49.285,-69.824c0,-12.102 -10.586,-21.172 -22.668,-18.145c0,10.586 10.586,19.641 22.668,18.145zm68.555,16.188c11.184,3.5938 21.332,-3.5742 21.859,-14.461c-11.043,-2.0625 -21.332,3.5742 -21.859,14.461zm-27.691,48.227c7.1875,7.5547 20.504,4.0703 25.824,-5.1953c-7.9961,-5.7969 -20.484,-4.0703 -25.824,5.1953zm24.078,-210.12c-10.375,7.8398 -10.355,21.594 -0.82813,29.012c8.8945,-8.6836 10.355,-21.594 0.82813,-29.012zm-90.188,190.01c5.7773,-11.555 0,-25.98 -12.98,-28.871c-7.2031,11.555 1.4453,24.535 12.98,28.871zm28.711,-13.211c-5.0195,9.1406 2.3086,20.785 12.77,23.039c3.1016,-9.3711 -2.3086,-20.766 -12.77,-23.039zm-178.43,71.285c10.867,8.2266 8.2773,26.016 -2.9961,34.277c-8.6836,-9.5312 -8.2773,-26.016 2.9961,-34.277zm-30.262,-0.30078c10.957,5.3711 11.75,21.453 3.2578,30.648c-9.2812,-6.8867 -11.75,-21.453 -3.2578,-30.648zm14.27,12.047c-10.781,-13.703 -6.8516,-33.414 9.5469,-40.762c9.4219,11.996 5.5117,31.707 -9.5469,40.762zm-25.469,-5.0391c6.7656,12.98 -3.9102,29.047 -18.652,31.883c-4.0508,-13.246 3.9102,-29.047 18.652,-31.883zm63.078,-2.9961c-14.125,-2.1836 -22.793,-16.188 -17.07,-29.75c12.367,1.9219 21.031,15.922 17.07,29.75zm-48.051,-33.027c7.0469,12.824 -3.2422,29.133 -17.914,32.324c-4.3516,-13.141 3.2422,-29.133 17.914,-32.324zm-29.363,13.227c7.7344,14.25 -0.72266,32.641 -15.852,35.336c-7.7344,-14.25 0.72266,-32.641 15.852,-35.336zm-91.418,20.188c1.5664,15.52 -11.926,26.105 -24.961,25.152c-2.0625,-14.02 10.41,-26.598 24.961,-25.152zm66.512,-6.3398c1.5664,15.52 -11.926,26.105 -24.961,25.152c-2.0625,-14.02 10.41,-26.598 24.961,-25.152zm-28.023,2.3086c-3.4688,15.625 -19.113,24.324 -33.008,17.367c1.7422,-13.898 17.387,-22.582 33.008,-17.367zm-19.219,-7.9805c-6.8867,11.027 -22.035,9.457 -30.297,-1.5664c9.6367,-9.4414 23.41,-9.4414 30.297,1.5664zm459.19,-28.008c-4.8438,13.703 7.8906,28.023 22.777,28.766c2.1484,-13.598 -7.8906,-28.023 -22.777,-28.766zm-502.01,-16.434c-4.2812,13.879 9.0195,27.691 23.902,27.832c1.6016,-13.668 -9.0195,-27.672 -23.902,-27.832zm376.65,52.07c-10.957,5.3711 -11.75,21.453 -3.2578,30.648c9.2812,-6.8867 11.75,-21.453 3.2578,-30.648zm-14.27,12.047c10.781,-13.703 6.8711,-33.414 -9.5312,-40.762c-9.4219,11.996 -5.5117,31.707 9.5312,40.762zm-370.4,-142.27c-6.7461,12.98 3.9102,29.047 18.652,31.883c4.0508,-13.246 -3.9102,-29.047 -18.652,-31.883zm242.04,-126.98c-6.6953,-11.801 -1.4102,-25.223 10.34,-28.641c4.9844,12.031 1.4102,25.223 -10.34,28.641zm-17.246,-30.613c-6.6953,-11.801 -1.4258,-25.223 10.32,-28.641c4.9844,12.031 1.4258,25.223 -10.32,28.641zm-24.309,-18.23c-10.375,-8.7539 -10.059,-23.164 -0.23047,-30.438c8.8438,9.5664 10.059,23.18 0.23047,30.438zm8.4727,82.629c-6.6953,-11.801 -1.4102,-25.223 10.34,-28.641c4.9844,12.031 1.4102,25.223 -10.34,28.641zm124.15,231.28c14.727,-2.8359 23.285,-17.859 16.75,-31.883c-12.875,2.4844 -21.438,17.508 -16.75,31.883zm-122.16,-269.27c1.7617,-12.875 -8.0156,-22.582 -19.992,-21.031c-0.10547,12.438 8.0156,22.582 19.992,21.031zm92.195,206.92c1.7617,-12.875 -8.0156,-22.582 -19.992,-21.031c-0.10547,12.438 8.0156,22.582 19.992,21.031zm-35.703,-13.969c1.7617,-12.875 -8.0156,-22.562 -19.992,-21.031c-0.10547,12.438 8.0156,22.582 19.992,21.031zm-34.77,-29.926c1.7969,-11.449 12.629,-17.227 22.457,-12.859c-3.1016,10.641 -12.629,17.227 -22.457,12.859zm22.316,-17.457c4.4375,-12.223 -3.0469,-23.762 -15.078,-24.801c-2.7461,12.137 3.0469,23.762 15.078,24.801zm-17.352,-28.555c13,0.17578 21.453,-10.676 18.477,-22.387c-12.348,1.3906 -21.453,10.676 -18.477,22.387zm-139.82,-52.387c-13.281,11.609 -31.758,8.0312 -39.176,-6.4453c14.02,-9.4414 31.758,-8.0312 39.176,6.4453zm154.85,25.684c-9.707,8.668 -23.199,5.9883 -28.625,-4.8086c10.234,-7.0469 23.199,-5.9883 28.625,4.8086zm-17.016,-60.578c-13.07,-5.9531 -15.992,-19.992 -7.082,-29.434c11.625,7.1172 15.992,19.992 7.082,29.434zm-59.113,-46.414c13.738,-2.1484 20.766,-15.871 15.641,-28.449c-12.77,3.8047 -20.766,15.871 -15.641,28.449zm-21.102,70.723c13.723,-2.1484 20.766,-15.871 15.641,-28.449c-12.77,3.8047 -20.766,15.871 -15.641,28.449zm26.262,18.355c9.1406,-6.3242 21.523,-3.0664 25.559,7.6641c-7.9961,5.5312 -20.379,2.2734 -25.559,-7.6641zm-15.52,50.887c-5.1797,-11.801 1.25,-25.188 14.355,-27.426c4.5273,10.32 -1.9023,23.711 -14.355,27.426zm37.855,-61.191c-0.35156,-13 -11.574,-20.98 -23.129,-17.527c1.9023,12.277 11.574,20.98 23.129,17.527zm-33.062,-85.801c-15.43,-1.5664 -23.711,-13.773 -18.355,-25.293c14.41,3.1016 23.711,13.773 18.355,25.293zm29.559,65.457c-15.43,-1.5664 -23.711,-13.773 -18.355,-25.293c14.41,3.1016 23.711,13.773 18.355,25.293zm1.3047,-67.57c-4.4375,-12.223 3.0469,-23.762 15.078,-24.801c2.7461,12.117 -3.0469,23.762 -15.078,24.801zm9.5117,88.672c-4.4375,-12.223 3.0469,-23.762 15.078,-24.801c2.7461,12.117 -3.0469,23.762 -15.078,24.801zm4.543,20.68c-4.4375,-12.223 3.0469,-23.762 15.078,-24.785c2.7461,12.117 -3.0469,23.762 -15.078,24.785zm-38.242,-7.9961c-9.7578,-5.6719 -9.707,-17.965 -0.66797,-25.84c8.3477,6.6055 9.707,17.965 0.66797,25.84zm9.5664,39.105c-4.4375,-12.223 3.0469,-23.762 15.078,-24.801c2.7461,12.137 -3.0469,23.762 -15.078,24.801zm36.461,23.586c5.1797,-12.594 -4.5273,-29.715 -21.066,-31.32c-4.5273,14.883 6.0078,30.543 21.066,31.32zm-80.711,-39.738c-4.4375,-12.223 3.0469,-23.762 15.078,-24.785c2.7461,12.117 -3.0469,23.762 -15.078,24.785zm14.777,5.5664c-4.1562,-10.074 3.6289,-23.781 16.875,-25.082c3.6289,11.926 -4.793,24.465 -16.875,25.082zm12.207,-90.59c-11.906,-6.3047 -15.395,-22.16 -6.8711,-33.926c12.945,7.4844 15.395,22.16 6.8711,33.926zm-37.59,0.73828c-17.281,5.7617 -34.578,-3.8398 -36.496,-19.199c15.359,-7.6797 32.656,3.8398 36.496,19.199zm-11.59,23.164c-17.281,5.7617 -34.578,-3.8398 -36.496,-19.199c15.359,-7.6797 32.656,3.8398 36.496,19.199zm34.332,33.258c-12.613,4.7383 -26.793,-3.1523 -29.945,-17.332c14.18,-4.7383 26.793,3.1523 29.945,17.332zm-14.285,15.359c-17.281,5.7617 -34.578,-3.8398 -36.496,-19.199c15.359,-7.6797 32.656,3.8398 36.496,19.199zm-28.781,7.0625c-13.617,8.9492 -29.891,3.207 -34.664,-11.113c14.004,-6.8516 29.891,-3.207 34.664,11.113zm-12.137,13.227c-6.2695,10.992 -23.551,12.559 -32.973,3.1367c6.2891,-12.559 25.117,-14.125 32.973,-3.1367zm104.98,-91.402c-13.723,5.6719 -27.461,-3.7891 -28.992,-18.898c12.207,-7.5742 25.93,3.7891 28.992,18.898zm-53.496,30.965c-13.738,5.6719 -27.461,-3.7891 -28.992,-18.898c12.207,-7.5547 25.93,3.7891 28.992,18.898zm-1.0586,68.59c-17.281,5.7617 -34.578,-3.8398 -36.496,-19.199c15.359,-7.6797 32.656,3.8398 36.496,19.199zm-123.55,71.938c-17.281,5.7617 -34.578,-3.8398 -36.496,-19.199c15.359,-7.6797 32.656,3.8398 36.496,19.199zm106.9,-29.594c-5.125,-11.961 1.707,-23.902 13.668,-25.613c3.418,11.961 -1.707,23.902 -13.668,25.613zm128.13,-161.63c0,-12.895 11.289,-22.562 24.168,-19.34c0,11.289 -11.289,20.945 -24.168,19.34zm-87.965,167.5c0,-12.895 11.289,-22.547 24.168,-19.34c0,11.289 -11.289,20.945 -24.168,19.34zm-22.492,20.203c-1.5664,12.473 -15.59,23.391 -28.059,18.707c0,-14.02 14.02,-23.391 28.059,-18.707zm-37.906,56.031c-13.441,3.8398 -28.801,-5.7617 -28.801,-19.199c11.52,-3.8398 26.879,5.7617 28.801,19.199zm86.98,-57.934c-5.3711,-10.727 0,-24.133 12.066,-26.809c6.7109,10.727 -1.3398,22.793 -12.066,26.809zm-140.11,-72.766c-11.75,4.4023 -24.961,-2.9414 -27.902,-16.152c13.211,-4.4023 24.961,2.9414 27.902,16.152zm1.0586,47.508c-11.75,4.4023 -24.961,-2.9414 -27.902,-16.152c13.211,-4.4023 24.961,2.9414 27.902,16.152zm-8.2617,10.887c-9.8281,11.449 -26.191,13.086 -36.023,1.6367c8.1914,-11.469 24.555,-13.105 36.023,-1.6367zm23.832,-21.734c-14.055,3.5039 -28.078,-8.7734 -28.078,-24.57c14.039,-3.5039 28.078,8.7734 28.078,24.57zm-11.52,63.289c-9.1406,10.676 -24.379,9.1406 -33.52,-1.5312c9.1406,-9.1406 25.91,-9.1406 33.52,1.5312zm-3.8398,-31.918c-1.6914,13.512 -18.566,23.621 -33.766,16.875c3.3828,-15.184 20.258,-23.621 33.766,-16.875zm22.547,-17.93c-4.1914,12.613 -19.941,15.941 -29.629,7.4492c4.7188,-11.273 19.148,-14.055 29.629,-7.4492zm72.098,-129.08c-17.281,-5.7617 -24.961,-23.039 -17.281,-38.418c17.281,3.8398 24.961,23.039 17.281,38.418zm-69.684,180.88c-17.281,-5.7617 -24.961,-23.039 -17.281,-38.418c17.281,3.8398 24.961,23.039 17.281,38.418zm-38.293,-95.629c-8.418,11.434 -24.871,13.406 -34.734,5.2656c8.6836,-12.98 25.137,-14.973 34.734,-5.2656zm91.844,61.227c-8.418,11.434 -24.871,13.406 -34.734,5.2656c8.6836,-12.98 25.137,-14.973 34.734,-5.2656zm-14.426,-126.23c-6.2695,10.992 -23.551,12.559 -32.973,3.1367c6.2891,-12.559 25.117,-14.125 32.973,-3.1367zm-15.484,99.238c-6.2695,10.992 -23.551,12.559 -32.957,3.1367c6.2695,-12.559 25.117,-14.125 32.957,-3.1367zm-59.715,-64.418c-15.66,5.2148 -31.32,-3.4883 -33.062,-17.402c13.934,-6.957 29.574,3.4883 33.062,17.402zm59.113,54.906c-15.66,5.2148 -31.32,-3.4883 -33.062,-17.402c13.914,-6.957 29.574,3.4883 33.062,17.402zm-26.879,113.16c-17.281,-5.7617 -24.961,-23.039 -17.281,-38.418c17.281,3.8398 23.059,23.039 17.281,38.418zm-21.121,-1.9219c-15.379,1.9219 -30.738,-11.52 -28.801,-28.801c15.359,-3.8398 30.719,9.6016 28.801,28.801zm298.18,-231.75c-4.668,-13.246 3.207,-25.77 15.852,-26.879c2.8711,13.141 -3.207,25.77 -15.852,26.879zm-71.074,-9.8477c-4.668,-13.246 3.207,-25.77 15.852,-26.879c2.8711,13.141 -3.207,25.754 -15.852,26.879zm-40.125,48.562c-4.668,-13.246 3.207,-25.77 15.852,-26.879c2.8711,13.141 -3.207,25.77 -15.852,26.879zm22.688,7.9258c10.641,-7.5039 11.078,-21.242 1.7969,-28.957c-9.1602,8.3828 -11.062,21.242 -1.7969,28.957zm21.895,-87.051c-5.1797,-14.637 3.5586,-28.465 17.578,-29.699c3.1875,14.516 -3.5586,28.465 -17.578,29.699zm-26.387,47.508c-5.1797,-14.637 3.5586,-28.465 17.578,-29.699c3.1875,14.516 -3.5586,28.465 -17.578,29.699zm-22,3.9102c-4.4375,-12.223 3.0469,-23.762 15.078,-24.801c2.7461,12.117 -3.0469,23.762 -15.078,24.801zm40.477,-59.148c4.4375,-12.223 -3.0469,-23.762 -15.078,-24.801c-2.7461,12.137 3.0469,23.762 15.078,24.801zm8.4531,78.121c4.4375,-12.223 -3.0469,-23.762 -15.078,-24.801c-2.7461,12.117 3.0469,23.762 15.078,24.801zm-4.8789,-92.527c13.441,-6.625 16.434,-22.23 7.2734,-32.727c-11.941,7.9102 -16.434,22.23 -7.2734,32.727zm9.4961,80.234c13.441,-6.625 16.434,-22.23 7.2734,-32.727c-11.941,7.9102 -16.434,22.23 -7.2734,32.727zm-86.75,-52.965c12.152,-4.6133 23.816,2.7109 25.012,14.727c-12.082,2.9062 -23.816,-2.7109 -25.012,-14.727zm47.859,90.785c12.152,-4.6133 23.816,2.7109 25.012,14.727c-12.082,2.9062 -23.797,-2.7109 -25.012,-14.727zm113.19,-90.047c9.1602,-12.578 4.7734,-29.098 -8.2773,-35.105c-7.2227,13.141 -4.7734,29.098 8.2773,35.105zm28.766,79.582c11.695,-10.25 11.027,-27.336 -0.38672,-36.059c-9.9336,11.238 -11.027,27.336 0.38672,36.059zm-130.65,73.664c10.039,-8.2617 9.4961,-22 -0.33594,-29.027c-8.543,9.0352 -9.4961,22 0.33594,29.027zm15.148,3.2227c12.312,-4.1758 16.645,-17.227 9.9336,-27.266c-11.184,5.4414 -16.645,17.227 -9.9336,27.266zm12.734,32.727c4.4375,-12.223 -3.0469,-23.762 -15.078,-24.801c-2.7461,12.137 3.0469,23.762 15.078,24.801zm82.402,-152.77c2.3086,-11.168 17.086,-18.512 29.348,-11.836c-3.8398,12.473 -18.512,18.391 -29.348,11.836zm-111.91,83.758c2.3086,-11.168 17.086,-18.496 29.348,-11.836c-3.8398,12.473 -18.496,18.391 -29.348,11.836zm11.574,-35.617c12.754,-2.5195 23.023,6.6602 22.195,18.688c-12.402,0.84375 -23.023,-6.6602 -22.195,-18.688zm77.203,-24.5c-5.4961,-12.488 3.7695,-24.309 18.637,-25.348c3.3828,12.402 -3.7695,24.309 -18.637,25.348zm160.8,65.137c-8.4883,-9.707 -23.355,-9.5312 -30.93,1.375c7.4336,8.4727 22.281,8.3125 30.93,-1.375zm-71.797,-58.059c-8.4883,-9.6875 -23.34,-9.5312 -30.914,1.375c7.4336,8.4883 22.281,8.332 30.914,-1.375zm-20.414,-58.41c-8.4883,-9.6875 -23.355,-9.5312 -30.93,1.375c7.4336,8.4883 22.281,8.3125 30.93,-1.375zm-63.34,67.57c-8.4883,-9.707 -23.355,-9.5312 -30.914,1.375c7.4336,8.4727 22.281,8.3125 30.914,-1.375zm3.1016,62.883c5.1797,-11.801 -1.25,-25.188 -14.34,-27.426c-4.543,10.32 1.9023,23.711 14.34,27.426zm-30.121,-77.77c-5.2148,-12.93 3.5586,-25.152 17.668,-26.246c3.207,12.84 -3.5586,25.152 -17.668,26.246zm-5.3555,-6.1992c4.5625,-14.305 -3.1367,-27.812 -15.5,-29.027c-2.8164,14.199 3.1367,27.812 15.5,29.027zm-7.9258,22.828c4.4375,-12.223 -3.0469,-23.762 -15.078,-24.801c-2.7461,12.117 3.0469,23.762 15.078,24.801zm-6.3047,21.383c4.4375,-12.223 -3.0469,-23.762 -15.078,-24.785c-2.7461,12.117 3.0469,23.762 15.078,24.785zm32.289,9.3008c4.4375,-12.223 -3.0469,-23.762 -15.078,-24.801c-2.7461,12.117 3.0469,23.762 15.078,24.801zm-3.6289,21.824c4.4375,-12.223 -3.0469,-23.762 -15.078,-24.801c-2.7461,12.137 3.0469,23.762 15.078,24.801zm-36.461,23.586c-5.1797,-12.594 4.5273,-29.715 21.066,-31.32c4.543,14.883 -5.9883,30.543 -21.066,31.32zm42.062,-122.6c4.4375,-12.223 -3.0469,-23.762 -15.078,-24.801c-2.7461,12.137 3.0469,23.762 15.078,24.801zm22.512,82.348c4.4375,-12.223 -3.0469,-23.762 -15.078,-24.801c-2.7461,12.137 3.0469,23.762 15.078,24.801zm11.254,-97.215c11.59,-6.8516 14.355,-22.828 5.3008,-34.191c-12.578,8.0664 -14.355,22.848 -5.3008,34.191zm-13.723,70.738c11.59,-6.8516 14.355,-22.848 5.3008,-34.207c-12.578,8.0664 -14.355,22.848 -5.3008,34.207zm9.6016,19.906c12.664,-4.6133 18.301,-19.816 11.484,-32.656c-13.844,5.6367 -18.301,19.832 -11.484,32.656zm11.148,-5.4258c17.281,5.7617 34.578,-3.8398 36.496,-19.199c-15.359,-7.6797 -32.656,3.8398 -36.496,19.199zm37.711,-47.453c12.332,7.6641 27.055,2.7461 31.371,-9.5312c-12.664,-5.8672 -27.055,-2.7461 -31.371,9.5312zm25.012,74.086c17.648,0.61719 27.742,-14.566 22.281,-31.25c-16.574,1.6367 -27.742,14.566 -22.281,31.25zm-12.824,-43.488c10.18,7.5391 26.617,2.0078 31.441,-10.41c-10.797,-8.9648 -28.676,-2.8008 -31.441,10.41zm-21.102,35.898c10.18,7.5195 26.617,2.0078 31.441,-10.41c-10.816,-8.9648 -28.676,-2.8008 -31.441,10.41zm-106.36,-98.254c17.562,-4.8438 26.562,-22.457 19.586,-36.285c-17.051,2.1836 -24.961,21.402 -19.586,36.285zm68.043,107.64c17.281,5.7617 34.578,-3.8398 36.496,-19.199c-15.359,-7.6797 -32.656,3.8398 -36.496,19.199zm48.703,-90.539c15.922,-0.42188 27.25,-13.492 24.238,-26.688c-14.918,-1.7266 -25.664,12.91 -24.238,26.688zm-30.332,105.91c15.094,5.0391 30.207,-3.3633 31.898,-16.785c-13.441,-6.7109 -28.535,3.3633 -31.898,16.785zm14.707,8.0312c-9.1953,-9.1953 -22.828,-7.2734 -28.836,3.207c9.8477,7.5938 22.828,7.2734 28.836,-3.207zm-52.07,11.625c0,-9.3516 -8.1914,-16.348 -17.527,-14.02c0,8.1914 8.1719,15.184 17.527,14.02zm17.773,82.93c-7.0469,12.824 3.2422,29.133 17.914,32.324c4.3516,-13.141 -3.2578,-29.133 -17.914,-32.324zm127.53,-34.895c1.7969,14.445 18.039,27.074 32.48,21.684l0,-1.1289c-0.72266,-15.625 -16.609,-25.84 -32.48,-20.555l0,-0.0001zm-139.35,-10.551c1.8125,14.445 18.074,27.09 32.516,21.664c0,-16.258 -16.258,-27.09 -32.516,-21.664zm49.938,51.945c13.441,3.8398 28.801,-5.7617 28.801,-19.199c-11.52,-3.8398 -26.879,5.7617 -28.801,19.199zm-85.43,-56.699c5.7773,-11.555 0,-25.965 -12.98,-28.871c-7.2031,11.555 1.4453,24.535 12.98,28.871zm137.52,-26.984c16.363,6.0586 34.77,-4.0508 38.859,-22.195c-18.406,-6.0586 -34.77,4.0352 -38.859,22.195zm10.129,9.1953c10.656,12.418 28.375,14.199 39.035,1.7773c-8.8789,-12.418 -26.617,-14.199 -39.035,-1.7773zm-25.699,-19.621c15.359,3.8398 30.719,-9.6016 30.719,-26.879c-15.359,-3.8594 -30.719,9.6016 -30.719,26.879zm11.52,61.457c11.52,13.441 30.719,11.52 42.258,-1.9219c-11.52,-11.52 -32.656,-11.52 -42.258,1.9219zm3.8398,-30.031c1.6914,13.512 18.566,23.621 33.766,16.875c-3.3828,-15.184 -20.258,-23.621 -33.766,-16.875zm37.641,-53.828c4.1758,12.613 19.922,15.941 29.629,7.4492c-4.7383,-11.273 -19.148,-14.055 -29.629,-7.4492zm-60.172,35.898c4.1758,12.613 19.922,15.941 29.629,7.4492c-4.7383,-11.273 -19.148,-14.055 -29.629,-7.4492zm-2.4297,51.805c17.281,-5.7617 24.961,-23.039 17.281,-38.418c-17.281,3.8398 -24.961,23.039 -17.281,38.418zm-55.695,-34.578c7.6797,15.359 26.879,21.121 40.336,13.441c-7.6797,-17.281 -26.879,-23.039 -40.336,-13.441zm116.48,6.4453c6.2891,10.992 23.551,12.559 32.973,3.1367c-6.2891,-12.559 -25.117,-14.125 -32.973,-3.1367zm-91.844,-32.727c6.2695,10.992 23.551,12.559 32.973,3.1367c-6.2891,-12.559 -25.117,-14.125 -32.973,-3.1367zm7.9961,-10.039c15.66,5.2148 31.32,-3.4883 33.043,-17.402c-13.914,-6.957 -29.574,3.4883 -33.043,17.402zm-12.629,106.45c-7.7344,14.25 0.72266,32.641 15.852,35.336c7.7344,-14.25 -0.72266,-32.641 -15.852,-35.336zm24.926,13.844c-1.5664,15.52 11.926,26.105 24.961,25.152c2.0625,-14.02 -10.41,-26.598 -24.961,-25.152zm28.023,2.3086c3.4688,15.625 19.113,24.324 33.008,17.367c-1.7266,-13.898 -17.367,-22.582 -33.008,-17.367zm-13.441,-9.4414c17.281,-5.7617 24.961,-23.039 17.281,-38.418c-17.281,3.8398 -23.039,23.039 -17.281,38.418zm21.121,-1.9219c15.359,1.9219 30.719,-11.52 28.801,-28.801c-15.359,-3.8398 -30.719,9.6016 -28.801,28.801zm11.52,5.1602c7.2031,11.504 23.059,9.8633 31.707,-1.6367c-10.094,-9.8633 -24.5,-9.8633 -31.707,1.6367z"/>
  </g>
 </g>
</svg>